<?xml version="1.0" encoding="UTF-8"?>
<svg xmlns="http://www.w3.org/2000/svg" xmlns:xlink="http://www.w3.org/1999/xlink" viewBox="0 0 60 60" width="60px" height="60px">
<g id="surface8938557">
<path style=" stroke:none;fill-rule:nonzero;fill:rgb(100%,100%,100%);fill-opacity:1;" d="M 20.332031 13.867188 C 19.75 13.8125 19.15625 14.015625 18.726562 14.445312 L 4.585938 28.585938 C 3.804688 29.367188 3.804688 30.632812 4.585938 31.414062 L 18.726562 45.554688 C 19.109375 45.9375 19.621094 46.140625 20.140625 46.140625 C 20.398438 46.140625 20.660156 46.09375 20.90625 45.992188 C 21.652344 45.683594 22.140625 44.953125 22.140625 44.144531 L 22.140625 36 L 52.140625 36 C 54.351562 36 56.140625 34.210938 56.140625 32 L 56.140625 28 C 56.140625 25.789062 54.351562 24 52.140625 24 L 22.140625 24 L 22.140625 15.859375 C 22.140625 15.050781 21.652344 14.320312 20.90625 14.011719 C 20.71875 13.933594 20.527344 13.886719 20.332031 13.867188 Z M 20.332031 13.867188 "/>
</g>
</svg>
