<svg xmlns="http://www.w3.org/2000/svg"  viewBox="0 0 24 24" width="48px" height="48px"><path d="M7.499,20c-0.278,0-0.559-0.077-0.81-0.238c-0.697-0.448-0.899-1.376-0.451-2.073l9-14c0.448-0.697,1.375-0.9,2.073-0.451 c0.697,0.448,0.899,1.376,0.451,2.073l-9,14C8.475,19.757,7.992,20,7.499,20z"/><path d="M16.501,20c-0.494,0-0.977-0.243-1.263-0.689l-9-14 C5.79,4.614,5.992,3.686,6.689,3.238c0.696-0.449,1.625-0.247,2.073,0.451l9,14c0.448,0.697,0.246,1.625-0.451,2.073 C17.06,19.923,16.779,20,16.501,20z" opacity=".35"/></svg>